REM DIRINDEX 1\2\4,1\2\5,1\3\6,1\3\7,1\3\8
REM DIRNAME cjc092,folder01,folder02,folder03,folder04,folder05,folder06,folder07
TITLE ""
FILE "LEVEL5-007-midashigo.mp3" MP3
  TRACK 01 AUDIO
    TITLE "0:"
    INDEX 01 00:00:00
  TRACK 02 AUDIO
    TITLE "6:cjc092_3630"
    INDEX 01 00:00:01
  TRACK 03 AUDIO
    TITLE "0:"
    INDEX 01 00:02:67
  TRACK 04 AUDIO
    TITLE "7:cjc092_3631"
    INDEX 01 00:03:39
  TRACK 05 AUDIO
    TITLE "8:cjc092_3632"
    INDEX 01 00:04:64
  TRACK 06 AUDIO
    TITLE "0:"
    INDEX 01 00:06:61
  TRACK 07 AUDIO
    TITLE "7:cjc092_3633"
    INDEX 01 00:07:11
  TRACK 08 AUDIO
    TITLE "8:cjc092_3634"
    INDEX 01 00:08:32
  TRACK 09 AUDIO
    TITLE "0:"
    INDEX 01 00:10:55
  TRACK 10 AUDIO
    TITLE "7:cjc092_3635"
    INDEX 01 00:11:11
  TRACK 11 AUDIO
    TITLE "8:cjc092_3636"
    INDEX 01 00:12:36
  TRACK 12 AUDIO
    TITLE "0:"
    INDEX 01 00:14:13
  TRACK 13 AUDIO
    TITLE "7:cjc092_3637"
    INDEX 01 00:14:45
  TRACK 14 AUDIO
    TITLE "8:cjc092_3638"
    INDEX 01 00:16:04
  TRACK 15 AUDIO
    TITLE "0:"
    INDEX 01 00:18:07
  TRACK 16 AUDIO
    TITLE "7:cjc092_3639"
    INDEX 01 00:18:37
  TRACK 17 AUDIO
    TITLE "8:cjc092_3640"
    INDEX 01 00:19:58
  TRACK 18 AUDIO
    TITLE "0:"
    INDEX 01 00:24:27
  TRACK 19 AUDIO
    TITLE "7:cjc092_3641"
    INDEX 01 00:24:59
  TRACK 20 AUDIO
    TITLE "8:cjc092_3642"
    INDEX 01 00:26:07
  TRACK 21 AUDIO
    TITLE "0:"
    INDEX 01 00:27:71
  TRACK 22 AUDIO
    TITLE "7:cjc092_3643"
    INDEX 01 00:28:27
  TRACK 23 AUDIO
    TITLE "8:cjc092_3644"
    INDEX 01 00:29:62
  TRACK 24 AUDIO
    TITLE "0:"
    INDEX 01 00:33:58
  TRACK 25 AUDIO
    TITLE "7:cjc092_3645"
    INDEX 01 00:34:16
  TRACK 26 AUDIO
    TITLE "8:cjc092_3646"
    INDEX 01 00:35:57
  TRACK 27 AUDIO
    TITLE "0:"
    INDEX 01 00:36:68
  TRACK 28 AUDIO
    TITLE "7:cjc092_3647"
    INDEX 01 00:37:14
  TRACK 29 AUDIO
    TITLE "8:cjc092_3648"
    INDEX 01 00:38:53
  TRACK 30 AUDIO
    TITLE "0:"
    INDEX 01 00:42:10
  TRACK 31 AUDIO
    TITLE "7:cjc092_3649"
    INDEX 01 00:42:39
  TRACK 32 AUDIO
    TITLE "8:cjc092_3650"
    INDEX 01 00:43:72
  TRACK 33 AUDIO
    TITLE "0:"
    INDEX 01 00:45:14
  TRACK 34 AUDIO
    TITLE "7:cjc092_3651"
    INDEX 01 00:45:37
  TRACK 35 AUDIO
    TITLE "8:cjc092_3652"
    INDEX 01 00:46:58
  TRACK 36 AUDIO
    TITLE "0:"
    INDEX 01 00:47:52
  TRACK 37 AUDIO
    TITLE "7:cjc092_3653"
    INDEX 01 00:48:08
  TRACK 38 AUDIO
    TITLE "8:cjc092_3654"
    INDEX 01 00:49:45
  TRACK 39 AUDIO
    TITLE "0:"
    INDEX 01 00:54:52
  TRACK 40 AUDIO
    TITLE "7:cjc092_3655"
    INDEX 01 00:55:08
  TRACK 41 AUDIO
    TITLE "8:cjc092_3656"
    INDEX 01 00:56:37
  TRACK 42 AUDIO
    TITLE "0:"
    INDEX 01 00:58:44
  TRACK 43 AUDIO
    TITLE "7:cjc092_3657"
    INDEX 01 00:58:64
  TRACK 44 AUDIO
    TITLE "8:cjc092_3658"
    INDEX 01 01:00:19
  TRACK 45 AUDIO
    TITLE "0:"
    INDEX 01 01:02:32
  TRACK 46 AUDIO
    TITLE "7:cjc092_3659"
    INDEX 01 01:02:54
  TRACK 47 AUDIO
    TITLE "8:cjc092_3660"
    INDEX 01 01:04:07
  TRACK 48 AUDIO
    TITLE "0:"
    INDEX 01 01:05:64
  TRACK 49 AUDIO
    TITLE "7:cjc092_3661"
    INDEX 01 01:06:22
  TRACK 50 AUDIO
    TITLE "8:cjc092_3662"
    INDEX 01 01:07:55
  TRACK 51 AUDIO
    TITLE "0:"
    INDEX 01 01:13:40
  TRACK 52 AUDIO
    TITLE "7:cjc092_3663"
    INDEX 01 01:13:71
  TRACK 53 AUDIO
    TITLE "8:cjc092_3664"
    INDEX 01 01:15:27
  TRACK 54 AUDIO
    TITLE "0:"
    INDEX 01 01:17:37
  TRACK 55 AUDIO
    TITLE "7:cjc092_3665"
    INDEX 01 01:17:65
  TRACK 56 AUDIO
    TITLE "8:cjc092_3666"
    INDEX 01 01:19:40
  TRACK 57 AUDIO
    TITLE "0:"
    INDEX 01 01:21:53
  TRACK 58 AUDIO
    TITLE "7:cjc092_3667"
    INDEX 01 01:22:07
  TRACK 59 AUDIO
    TITLE "8:cjc092_3668"
    INDEX 01 01:23:28
  TRACK 60 AUDIO
    TITLE "0:"
    INDEX 01 01:25:68
  TRACK 61 AUDIO
    TITLE "7:cjc092_3669"
    INDEX 01 01:26:21
  TRACK 62 AUDIO
    TITLE "8:cjc092_3670"
    INDEX 01 01:27:44
  TRACK 63 AUDIO
    TITLE "0:"
    INDEX 01 01:29:41
